0
SECTION
2
HEADER
9
$INSUNITS
70
4
9
$ACADVER
1
AC1014
9
$HANDSEED
5
FFFF
0
ENDSEC
0
SECTION
2
TABLES
0
TABLE
2
VPORT
5
8
100
AcDbSymbolTable
0
ENDTAB
0
TABLE
2
LTYPE
5
5
100
AcDbSymbolTable
0
LTYPE
5
14
100
AcDbSymbolTableRecord
100
AcDbLinetypeTableRecord
2
BYBLOCK
70
0
0
LTYPE
5
15
100
AcDbSymbolTableRecord
100
AcDbLinetypeTableRecord
2
BYLAYER
70
0
0
LTYPE
5
16
100
AcDbSymbolTableRecord
100
AcDbLinetypeTableRecord
2
DASHED
70
0
3
Dashed __ __ __ __ __ __ __ __ __ __ __ __ __ _
72
65
73
2
40
0.75
49
0.5
74
0
49
-0.25
74
0
0
ENDTAB
0
TABLE
2
LAYER
5
2
100
AcDbSymbolTable
70
2
0
LAYER
5
50
100
AcDbSymbolTableRecord
100
AcDbLayerTableRecord
2
0
70
0
62
7
6
CONTINUOUS
0
ENDTAB
0
TABLE
2
STYLE
5
3
100
AcDbSymbolTable
70
1
0
STYLE
5
11
100
AcDbSymbolTableRecord
100
AcDbTextStyleTableRecord
2
STANDARD
70
0
0
ENDTAB
0
TABLE
2
VIEW
5
6
100
AcDbSymbolTable
70
0
0
ENDTAB
0
TABLE
2
UCS
5
7
100
AcDbSymbolTable
70
0
0
ENDTAB
0
TABLE
2
APPID
5
9
100
AcDbSymbolTable
70
2
0
APPID
5
12
100
AcDbSymbolTableRecord
100
AcDbRegAppTableRecord
2
ACAD
70
0
0
ENDTAB
0
TABLE
2
DIMSTYLE
5
A
100
AcDbSymbolTable
70
1
0
ENDTAB
0
TABLE
2
BLOCK_RECORD
5
1
100
AcDbSymbolTable
70
1
0
BLOCK_RECORD
5
1F
100
AcDbSymbolTableRecord
100
AcDbBlockTableRecord
2
*MODEL_SPACE
0
BLOCK_RECORD
5
1B
100
AcDbSymbolTableRecord
100
AcDbBlockTableRecord
2
*PAPER_SPACE
0
ENDTAB
0
ENDSEC
0
SECTION
2
BLOCKS
0
BLOCK
5
20
100
AcDbEntity
100
AcDbBlockBegin
2
*MODEL_SPACE
0
ENDBLK
5
21
100
AcDbEntity
100
AcDbBlockEnd
0
BLOCK
5
1C
100
AcDbEntity
100
AcDbBlockBegin
2
*PAPER_SPACE
0
ENDBLK
5
1D
100
AcDbEntity
100
AcDbBlockEnd
0
ENDSEC
0
SECTION
2
ENTITIES
0
LWPOLYLINE
5
100
100
AcDbEntity
8
0
100
AcDbPolyline
90
40
70
1
43
0.0
10
59.876763175990902
20
3.1597524356109701
10
59.876763175990803
20
53.418795902045908
42
-0.41421356237309709
10
64.876763175990803
20
58.418795902045915
10
72.746763175993195
20
58.418795902046
42
0.41421356237309503
10
75.746763175993195
20
61.418795902046
10
75.746763175994701
20
112.15975243560899
42
0.41421356237309503
10
72.746763175994701
20
115.15975243560904
10
61.676763175990708
20
115.15975243560899
42
-0.41421356237308377
10
58.676763175990786
20
118.15975243560898
10
58.6767631759907
20
123.418795902046
42
0.41421356237317047
10
53.676763175990807
20
128.4187959020465
10
52.300672168165299
20
128.41879590204596
42
-0.29872084095777512
10
48.631654885026265
20
130.82558776246489
10
43.095056730059184
20
143.575883104105
42
-0.53997682714099626
10
51.808972777513908
20
156.85975243561103
10
61.3267631759906
20
156.859752435611
42
0.41421356237310542
10
64.326763175990735
20
159.859752435611
10
64.32676317599072
20
165.15975243561101
42
0.41421356237309503
10
61.3267631759906
20
168.15975243561104
10
-13.973236824008701
20
168.15975243561101
42
0.41421356237309503
10
-16.973236824008723
20
165.15975243561101
10
-16.973236824008701
20
159.859752435611
42
0.41421356237309503
10
-13.973236824008701
20
156.859752435611
10
-4.4554464255318615
20
156.85975243561097
42
-0.53997682714099937
10
4.2584696219227762
20
143.575883104105
10
-1.2781285330454062
20
130.82558776246407
42
-0.29872084095771256
10
-4.9471458161841113
20
128.41879590204596
10
-6.323236824009201
20
128.41879590204601
42
0.41421356237313223
10
-11.323236824009301
20
123.418795902046
10
-11.323236824009307
20
118.159752435613
42
-0.41421356237310375
10
-14.323236824009403
20
115.159752435613
10
-22.853236824004203
20
115.159752435613
42
0.41421356237311452
10
-25.853236824004423
20
112.15975243561302
10
-25.853236824006402
20
61.418795902046
42
0.41421356237309503
10
-22.853236824006405
20
58.418795902046
10
-17.523236824009
20
58.418795902046
42
-0.41421356237309476
10
-12.523236824009009
20
53.418795902046
10
-12.5232368240091
20
3.1597524356110718
42
0.41421356237309581
10
-7.5232368240091096
20
-1.8402475643889205
10
54.876763175990902
20
-1.8402475643890299
42
0.41421356237309442
0
CIRCLE
5
101
100
AcDbEntity
8
0
100
AcDbCircle
10
-10.613236824004503
20
110.619752435612
30
0
40
1.5874999999999997
210
0
220
-0
230
1
0
CIRCLE
5
102
100
AcDbEntity
8
0
100
AcDbCircle
10
26.777214186354104
20
4.7323615705872104
30
0
40
1.7500000000000002
210
0
220
-0
230
1
0
LWPOLYLINE
5
103
100
AcDbEntity
8
0
100
AcDbPolyline
90
4
70
1
43
0.0
10
36.32721418635461
20
32.2586037196386
10
36.32721418635461
20
45.2586037196386
10
42.827214186354503
20
45.2586037196386
10
42.827214186354503
20
32.2586037196386
0
CIRCLE
5
104
100
AcDbEntity
8
0
100
AcDbCircle
10
19.7663363383943
20
112.75847050758401
30
0
40
1.5000000000000002
210
0
220
-0
230
1
0
CIRCLE
5
105
100
AcDbEntity
8
0
100
AcDbCircle
10
-11.883236824006399
20
62.359752435612499
30
0
40
1.5874999999999997
210
0
220
-0
230
1
0
LWPOLYLINE
5
106
100
AcDbEntity
8
0
100
AcDbPolyline
90
4
70
1
43
0.0
10
10.6770609137211
20
48.539939491996904
10
10.6770609137211
20
3.9624926408456318
10
0.67706091372096378
20
3.96249264084563
10
0.67706091372098598
20
48.539939491996904
0
CIRCLE
5
107
100
AcDbEntity
8
0
100
AcDbCircle
10
58.676763175991198
20
162.509752435612
30
0
40
1.9999999999999902
210
0
220
-0
230
1
0
CIRCLE
5
108
100
AcDbEntity
8
0
100
AcDbCircle
10
27.066336338394098
20
154.958470507584
30
0
40
1.5000000000000002
210
0
220
-0
230
1
0
CIRCLE
5
109
100
AcDbEntity
8
0
100
AcDbCircle
10
-6.3232368240091308
20
3.1597524356110602
30
0
40
1.5000000000000002
210
0
220
-0
230
1
0
CIRCLE
5
110
100
AcDbEntity
8
0
100
AcDbCircle
10
33.6767631759908
20
162.509752435612
30
0
40
1.49999999999999
210
0
220
-0
230
1
0
CIRCLE
5
111
100
AcDbEntity
8
0
100
AcDbCircle
10
-6.1229390862789312
20
21.738424630413199
30
0
40
1.5000000000000002
210
0
220
-0
230
1
0
LWPOLYLINE
5
112
100
AcDbEntity
8
0
100
AcDbPolyline
90
4
70
1
43
0.0
10
61.676763175990807
20
83.409752435611011
10
61.676763175990807
20
89.409752435610997
10
63.676763175990807
20
89.409752435610997
10
63.676763175990807
20
83.409752435611011
0
CIRCLE
5
113
100
AcDbEntity
8
0
100
AcDbCircle
10
27.066336338394304
20
112.75847050758401
30
0
40
1.5000000000000002
210
0
220
-0
230
1
0
CIRCLE
5
114
100
AcDbEntity
8
0
100
AcDbCircle
10
23.676763175990999
20
96.159752435611011
30
0
40
1.45
210
0
220
-0
230
1
0
CIRCLE
5
115
100
AcDbEntity
8
0
100
AcDbCircle
10
26.777214186354104
20
29.732361570587202
30
0
40
1.7500000000000002
210
0
220
-0
230
1
0
CIRCLE
5
116
100
AcDbEntity
8
0
100
AcDbCircle
10
-11.323236824008699
20
162.509752435612
30
0
40
1.9999999999999902
210
0
220
-0
230
1
0
CIRCLE
5
117
100
AcDbEntity
8
0
100
AcDbCircle
10
53.476763175992303
20
30.739274168828501
30
0
40
1.5000000000000002
210
0
220
-0
230
1
0
CIRCLE
5
118
100
AcDbEntity
8
0
100
AcDbCircle
10
53.476763175992303
20
21.739274168828505
30
0
40
1.5000000000000002
210
0
220
-0
230
1
0
CIRCLE
5
119
100
AcDbEntity
8
0
100
AcDbCircle
10
-6.1229390862789312
20
30.7384246304131
30
0
40
1.5000000000000002
210
0
220
-0
230
1
0
LWPOLYLINE
5
120
100
AcDbEntity
8
0
100
AcDbPolyline
90
4
70
1
43
0.0
10
36.32721418635461
20
7.25860371963861
10
36.32721418635461
20
20.2586037196387
10
42.827214186354503
20
20.2586037196387
10
42.827214186354503
20
7.2586037196386011
0
CIRCLE
5
121
100
AcDbEntity
8
0
100
AcDbCircle
10
53.676763175990807
20
3.1597524356111006
30
0
40
1.5000000000000002
210
0
220
-0
230
1
0
CIRCLE
5
122
100
AcDbEntity
8
0
100
AcDbCircle
10
26.777214186354104
20
47.732361570587202
30
0
40
1.7500000000000002
210
0
220
-0
230
1
0
CIRCLE
5
123
100
AcDbEntity
8
0
100
AcDbCircle
10
-6.3232368240091397
20
54.318795902045409
30
0
40
1.5000000000000002
210
0
220
-0
230
1
0
CIRCLE
5
124
100
AcDbEntity
8
0
100
AcDbCircle
10
64.31676317599522
20
110.61975243561001
30
0
40
1.5874999999999901
210
0
220
-0
230
1
0
CIRCLE
5
125
100
AcDbEntity
8
0
100
AcDbCircle
10
-6.3232368240088412
20
123.41879590204699
30
0
40
1.5000000000000102
210
0
220
-0
230
1
0
CIRCLE
5
126
100
AcDbEntity
8
0
100
AcDbCircle
10
53.676763175991098
20
123.41879590204699
30
0
40
1.5000000000000102
210
0
220
-0
230
1
0
CIRCLE
5
127
100
AcDbEntity
8
0
100
AcDbCircle
10
26.777214186354104
20
22.732361570587202
30
0
40
1.7500000000000002
210
0
220
-0
230
1
0
CIRCLE
5
128
100
AcDbEntity
8
0
100
AcDbCircle
10
23.676763175990999
20
76.659752435610997
30
0
40
1.45
210
0
220
-0
230
1
0
CIRCLE
5
129
100
AcDbEntity
8
0
100
AcDbCircle
10
13.676763175990899
20
162.509752435612
30
0
40
1.5000000000000202
210
0
220
-0
230
1
0
LWPOLYLINE
5
130
100
AcDbEntity
8
0
100
AcDbPolyline
90
8
70
1
43
0.0
10
30.716336338394299
20
115.858470507584
42
0.41421356237309825
10
31.116336338394316
20
116.25847050758401
10
31.116336338394195
20
151.458470507584
42
0.41421356237309176
10
30.716336338394203
20
151.858470507584
10
16.116336338394198
20
151.85847050758403
42
0.4142135623731194
10
15.716336338394202
20
151.458470507584
10
15.716336338394278
20
116.25847050758401
42
0.41421356237316331
10
16.116336338394301
20
115.85847050758402
0
CIRCLE
5
131
100
AcDbEntity
8
0
100
AcDbCircle
10
70.666763175993296
20
62.359752435609302
30
0
40
1.5874999999999901
210
0
220
-0
230
1
0
CIRCLE
5
132
100
AcDbEntity
8
0
100
AcDbCircle
10
53.6767631759907
20
54.318795902045508
30
0
40
1.5000000000000002
210
0
220
-0
230
1
0
CIRCLE
5
133
100
AcDbEntity
8
0
100
AcDbCircle
10
19.766336338394101
20
154.958470507584
30
0
40
1.5000000000000002
210
0
220
-0
230
1
0
ENDSEC
0
SECTION
2
OBJECTS
0
DICTIONARY
5
C
100
AcDbDictionary
3
ACAD_GROUP
350
D
3
ACAD_MLINESTYLE
350
17
0
DICTIONARY
5
D
100
AcDbDictionary
0
DICTIONARY
5
1A
330
C
100
AcDbDictionary
0
DICTIONARY
5
17
100
AcDbDictionary
0
ENDSEC
0
EOF
