0
SECTION
2
HEADER
9
$INSUNITS
70
4
9
$ACADVER
1
AC1014
9
$HANDSEED
5
FFFF
0
ENDSEC
0
SECTION
2
TABLES
0
TABLE
2
VPORT
5
8
100
AcDbSymbolTable
0
ENDTAB
0
TABLE
2
LTYPE
5
5
100
AcDbSymbolTable
0
LTYPE
5
14
100
AcDbSymbolTableRecord
100
AcDbLinetypeTableRecord
2
BYBLOCK
70
0
0
LTYPE
5
15
100
AcDbSymbolTableRecord
100
AcDbLinetypeTableRecord
2
BYLAYER
70
0
0
LTYPE
5
16
100
AcDbSymbolTableRecord
100
AcDbLinetypeTableRecord
2
DASHED
70
0
3
Dashed __ __ __ __ __ __ __ __ __ __ __ __ __ _
72
65
73
2
40
0.75
49
0.5
74
0
49
-0.25
74
0
0
ENDTAB
0
TABLE
2
LAYER
5
2
100
AcDbSymbolTable
70
2
0
LAYER
5
50
100
AcDbSymbolTableRecord
100
AcDbLayerTableRecord
2
0
70
0
62
7
6
CONTINUOUS
0
ENDTAB
0
TABLE
2
STYLE
5
3
100
AcDbSymbolTable
70
1
0
STYLE
5
11
100
AcDbSymbolTableRecord
100
AcDbTextStyleTableRecord
2
STANDARD
70
0
0
ENDTAB
0
TABLE
2
VIEW
5
6
100
AcDbSymbolTable
70
0
0
ENDTAB
0
TABLE
2
UCS
5
7
100
AcDbSymbolTable
70
0
0
ENDTAB
0
TABLE
2
APPID
5
9
100
AcDbSymbolTable
70
2
0
APPID
5
12
100
AcDbSymbolTableRecord
100
AcDbRegAppTableRecord
2
ACAD
70
0
0
ENDTAB
0
TABLE
2
DIMSTYLE
5
A
100
AcDbSymbolTable
70
1
0
ENDTAB
0
TABLE
2
BLOCK_RECORD
5
1
100
AcDbSymbolTable
70
1
0
BLOCK_RECORD
5
1F
100
AcDbSymbolTableRecord
100
AcDbBlockTableRecord
2
*MODEL_SPACE
0
BLOCK_RECORD
5
1B
100
AcDbSymbolTableRecord
100
AcDbBlockTableRecord
2
*PAPER_SPACE
0
ENDTAB
0
ENDSEC
0
SECTION
2
BLOCKS
0
BLOCK
5
20
100
AcDbEntity
100
AcDbBlockBegin
2
*MODEL_SPACE
0
ENDBLK
5
21
100
AcDbEntity
100
AcDbBlockEnd
0
BLOCK
5
1C
100
AcDbEntity
100
AcDbBlockBegin
2
*PAPER_SPACE
0
ENDBLK
5
1D
100
AcDbEntity
100
AcDbBlockEnd
0
ENDSEC
0
SECTION
2
ENTITIES
0
LWPOLYLINE
5
100
100
AcDbEntity
8
0
100
AcDbPolyline
90
30
70
1
43
0.0
10
26.116336338394301
20
149.858470507584
10
30.716336338394203
20
149.858470507584
42
-0.41421356237309503
10
31.116336338394195
20
149.458470507584
10
31.116336338394301
20
118.41879590204699
10
53.676763175991098
20
118.41879590204699
42
0.99999999999999989
10
53.67676317599112
20
128.41879590204661
10
52.300672168165299
20
128.41879590204596
42
-0.29872084095777651
10
48.631654885026251
20
130.82558776246489
10
38.311043505711915
20
154.59304198424101
42
-0.10277583344957955
10
37.897315109635315
20
156.584552158718
10
37.8973151096354
20
163.15975243561101
42
0.41421356237309243
10
32.8973151096354
20
168.15975243561098
10
14.456211242347001
20
168.15975243561101
42
0.41421356237309465
10
9.4562112423469724
20
163.15975243561101
10
9.4562112423470008
20
156.584552158717
42
-0.10277583344956766
10
9.0424828462704472
20
154.59304198424002
10
-1.2781285330453906
20
130.82558776246404
42
-0.29872084095771489
10
-4.9471458161841113
20
128.41879590204593
10
-6.323236824009201
20
128.41879590204601
42
0.99999999999999989
10
-6.3232368240085082
20
118.41879590204753
10
15.716336338394301
20
118.41879590204699
10
15.716336338394171
20
149.458470507584
42
-0.41421356237309503
10
16.116336338394198
20
149.85847050758403
10
20.716336338394299
20
149.858470507584
10
20.716336338394299
20
150.858470507584
10
21.116336338394301
20
150.858470507584
10
21.316336338394301
20
154.858470507584
10
25.5163363383943
20
154.858470507584
10
25.716336338394299
20
150.858470507584
10
26.116336338394301
20
150.858470507584
0
CIRCLE
5
101
100
AcDbEntity
8
0
100
AcDbCircle
10
-6.3232368240088537
20
123.41879590204699
30
0
40
1.5000000000000102
210
0
220
-0
230
1
0
CIRCLE
5
102
100
AcDbEntity
8
0
100
AcDbCircle
10
33.6767631759908
20
162.509752435612
30
0
40
1.49999999999999
210
0
220
-0
230
1
0
CIRCLE
5
103
100
AcDbEntity
8
0
100
AcDbCircle
10
13.676763175990899
20
162.509752435612
30
0
40
1.5000000000000202
210
0
220
-0
230
1
0
CIRCLE
5
104
100
AcDbEntity
8
0
100
AcDbCircle
10
53.676763175991113
20
123.41879590204699
30
0
40
1.5000000000000102
210
0
220
-0
230
1
0
ENDSEC
0
SECTION
2
OBJECTS
0
DICTIONARY
5
C
100
AcDbDictionary
3
ACAD_GROUP
350
D
3
ACAD_MLINESTYLE
350
17
0
DICTIONARY
5
D
100
AcDbDictionary
0
DICTIONARY
5
1A
330
C
100
AcDbDictionary
0
DICTIONARY
5
17
100
AcDbDictionary
0
ENDSEC
0
EOF
